<svg xmlns="http://www.w3.org/2000/svg" width="117.683" height="30.812" viewBox="0 0 117.683 30.812">
  <g id="Groupe_1419" data-name="Groupe 1419" transform="translate(-346.387 -1143.51)">
    <g id="Groupe_1417" data-name="Groupe 1417" transform="translate(346.387 1143.51)">
      <g id="Groupe_1416" data-name="Groupe 1416">
        <path id="Tracé_2162" data-name="Tracé 2162" d="M375.982,1160.66c0,6.125-4.223,7.342-12.667,7.342-10.727,0-10.347-4.793-10.347-9.167s-.38-9.168,10.347-9.168c8.445,0,12.667,1.217,12.667,7.342l6.048-2.4s.228-11.183-18.031-11.183c-15.977,0-17.612,7.874-17.612,15.406s1.636,15.406,17.612,15.406c18.259,0,18.031-11.183,18.031-11.183Z" transform="translate(-346.387 -1143.428)" fill="#df2430"/>
        <path id="Tracé_2163" data-name="Tracé 2163" d="M377.691,1185.3a.662.662,0,0,0-.986.882,8.684,8.684,0,0,0,12.9,0,.662.662,0,1,0-.986-.882,7.361,7.361,0,0,1-10.924,0Z" transform="translate(-365.166 -1169.374)" fill="#df2430"/>
        <path id="Tracé_2164" data-name="Tracé 2164" d="M402.849,1176.163a.352.352,0,0,0,.352-.352,1.054,1.054,0,0,1,2.109,0,.352.352,0,1,0,.7,0,1.757,1.757,0,0,0-3.515,0A.352.352,0,0,0,402.849,1176.163Z" transform="translate(-381.336 -1162.504)" fill="#df2430"/>
        <path id="Tracé_2165" data-name="Tracé 2165" d="M376.888,1176.163a.352.352,0,0,0,.352-.352,1.054,1.054,0,0,1,2.109,0,.352.352,0,1,0,.7,0,1.757,1.757,0,0,0-3.515,0A.352.352,0,0,0,376.888,1176.163Z" transform="translate(-365.166 -1162.504)" fill="#df2430"/>
      </g>
    </g>
    <g id="Groupe_1418" data-name="Groupe 1418" transform="translate(393.07 1146.51)">
      <text id="Carety" transform="translate(0 20)" fill="#df2430" font-size="21" font-family="Montserrat-SemiBold, Montserrat" font-weight="600"><tspan x="0" y="0">Care</tspan><tspan y="0" fill="#272727">ty</tspan></text>
    </g>
  </g>
</svg>
